<svg xmlns="http://www.w3.org/2000/svg" xmlns:xlink="http://www.w3.org/1999/xlink" width="500" zoomAndPan="magnify" viewBox="0 0 375 374.999991" height="500" preserveAspectRatio="xMidYMid meet" version="1.0"><defs><g/><clipPath id="af9a05fc3e"><path d="M 54.097656 97.441406 L 321 97.441406 L 321 212.941406 L 54.097656 212.941406 Z M 54.097656 97.441406 " clip-rule="nonzero"/></clipPath><clipPath id="e1598d780c"><rect x="0" width="269" y="0" height="56"/></clipPath></defs><g clip-path="url(#af9a05fc3e)"><path fill="#000000" d="M 67.863281 211.871094 C 88.140625 201.960938 104.402344 198.273438 116.21875 200.890625 C 117.332031 201.136719 118.425781 200.4375 118.675781 199.328125 C 118.921875 198.21875 118.222656 197.121094 117.109375 196.875 C 104.375 194.035156 87.195312 197.847656 66.066406 208.171875 C 63.640625 209.351562 61.433594 209.390625 59.980469 208.28125 C 58.925781 207.472656 58.445312 206.128906 58.71875 204.769531 C 59.171875 202.496094 61.476562 200.628906 65.039062 199.65625 C 80.667969 195.421875 100.191406 188.660156 120.839844 179.558594 C 147.261719 168.574219 170.28125 162.761719 187.472656 162.761719 C 204.664062 162.761719 227.683594 168.574219 254.105469 179.558594 C 274.75 188.660156 294.273438 195.421875 309.890625 199.644531 C 313.457031 200.601562 315.757812 202.46875 316.210938 204.757812 C 316.484375 206.113281 315.992188 207.457031 314.949219 208.265625 C 313.496094 209.378906 311.289062 209.335938 308.863281 208.15625 C 287.734375 197.832031 270.554688 194.023438 257.820312 196.859375 C 256.707031 197.105469 256.007812 198.203125 256.257812 199.3125 C 256.503906 200.425781 257.601562 201.125 258.710938 200.878906 C 270.527344 198.246094 286.789062 201.945312 307.066406 211.859375 C 308.902344 212.75 310.714844 213.203125 312.398438 213.203125 C 314.292969 213.203125 316.03125 212.640625 317.472656 211.53125 C 319.777344 209.761719 320.84375 206.867188 320.269531 203.960938 C 319.5 200.097656 316.113281 197.078125 311 195.679688 C 295.890625 191.59375 277.109375 185.109375 257.203125 176.417969 C 257.09375 176.335938 256.96875 176.265625 256.832031 176.210938 C 256.421875 176.035156 256.007812 175.882812 255.597656 175.707031 C 234.441406 166.367188 212.121094 154.5625 191.640625 140.46875 C 191.652344 140.347656 191.679688 140.238281 191.679688 140.101562 C 191.679688 138.660156 190.953125 137.398438 189.84375 136.644531 C 190.597656 132.394531 193.050781 128.488281 196.851562 125.636719 C 200.894531 122.605469 203.238281 117.765625 203.101562 112.707031 C 202.882812 104.578125 196.082031 97.789062 187.953125 97.558594 C 183.6875 97.433594 179.683594 99.011719 176.640625 101.972656 C 173.597656 104.933594 171.925781 108.910156 171.925781 113.144531 L 171.925781 116.300781 C 171.925781 117.4375 172.84375 118.355469 173.980469 118.355469 C 175.117188 118.355469 176.039062 117.4375 176.039062 116.300781 L 176.039062 113.144531 C 176.039062 110.019531 177.273438 107.097656 179.519531 104.917969 C 181.671875 102.765625 184.621094 101.617188 187.761719 101.699219 C 193.738281 101.863281 198.742188 106.867188 198.90625 112.84375 C 199.015625 116.574219 197.289062 120.136719 194.300781 122.371094 C 189.515625 125.949219 186.484375 130.941406 185.636719 136.371094 C 184.238281 137.042969 183.25 138.46875 183.25 140.128906 C 183.25 140.25 183.277344 140.375 183.289062 140.496094 C 162.820312 154.589844 140.488281 166.394531 119.347656 175.734375 C 118.933594 175.910156 118.523438 176.0625 118.113281 176.238281 C 117.976562 176.296875 117.851562 176.363281 117.742188 176.445312 C 97.820312 185.125 79.039062 191.609375 63.941406 195.695312 C 58.816406 197.078125 55.441406 200.097656 54.675781 203.976562 C 54.097656 206.882812 55.167969 209.773438 57.472656 211.542969 C 58.910156 212.65625 60.652344 213.214844 62.542969 213.214844 C 64.21875 213.203125 66.027344 212.765625 67.863281 211.871094 Z M 185.636719 143.882812 C 186.183594 144.144531 186.785156 144.308594 187.429688 144.308594 C 188.074219 144.308594 188.679688 144.144531 189.226562 143.882812 C 200.003906 151.300781 211.273438 158.085938 222.625 164.214844 C 209.324219 160.554688 197.453125 158.664062 187.429688 158.664062 C 177.421875 158.664062 165.535156 160.554688 152.238281 164.214844 C 163.589844 158.085938 174.859375 151.289062 185.636719 143.882812 Z M 185.636719 143.882812 " fill-opacity="1" fill-rule="nonzero"/></g><g transform="matrix(1, 0, 0, 1, 53, 217)"><g clip-path="url(#e1598d780c)"><g fill="#000000" fill-opacity="1"><g transform="translate(0.316085, 41.562948)"><g><path d="M 1.355469 -18.285156 C 1.355469 -7.21875 9.117188 0.597656 20.511719 0.597656 C 32.613281 0.597656 36.519531 -3.472656 36.574219 -3.691406 L 37.820312 -9.171875 C 37.820312 -9.441406 37.605469 -9.714844 37.332031 -9.714844 C 36.953125 -9.660156 36.792969 -9.496094 36.628906 -9.171875 C 36.574219 -9.007812 36.519531 -8.789062 36.410156 -8.574219 C 35.542969 -6.675781 30.714844 -1.085938 21.921875 -1.085938 C 11.449219 -1.085938 6.078125 -10.582031 6.078125 -19.96875 C 6.078125 -30.117188 11.234375 -37.117188 21.761719 -37.117188 C 28.597656 -37.117188 32.070312 -33.535156 34.1875 -30.550781 C 35.109375 -29.25 35.921875 -28.054688 36.25 -27.1875 C 36.519531 -26.425781 36.898438 -25.992188 37.226562 -25.992188 C 37.714844 -25.992188 37.769531 -26.589844 37.769531 -27.078125 C 37.769531 -27.1875 37.550781 -30.441406 37.441406 -32.882812 C 37.386719 -34.023438 37.332031 -35.054688 36.792969 -35.054688 C 36.25 -35.054688 35.921875 -34.511719 35.488281 -34.511719 C 33.859375 -34.511719 31.148438 -38.691406 20.945312 -38.691406 C 9.277344 -38.691406 1.355469 -29.355469 1.355469 -18.285156 Z M 1.355469 -18.285156 "/></g></g></g><g fill="#000000" fill-opacity="1"><g transform="translate(39.493361, 41.562948)"><g><path d="M 0.976562 -37.496094 C 0.976562 -36.410156 5.535156 -36.738281 5.535156 -34.023438 L 5.535156 -5.96875 C 5.535156 -2.277344 4.613281 -2.007812 3.691406 -1.574219 C 2.660156 -1.085938 1.628906 -0.921875 1.628906 -0.324219 C 1.628906 0.21875 2.277344 0.21875 2.550781 0.21875 C 4.992188 0.21875 7.761719 0 10.851562 0 C 14.433594 0 17.582031 0.21875 21.761719 0.21875 C 24.257812 0.21875 25.015625 0.0546875 26.316406 -1.195312 C 28.324219 -3.148438 29.464844 -5.15625 29.464844 -6.835938 C 29.464844 -7.164062 29.355469 -7.542969 29.03125 -7.542969 C 28.21875 -7.542969 26.589844 -1.953125 14 -1.953125 C 10.472656 -1.953125 9.820312 -2.550781 9.820312 -4.992188 L 9.820312 -32.882812 C 9.820312 -37.496094 13.78125 -36.195312 13.78125 -37.441406 C 13.78125 -38.09375 13.402344 -38.203125 12.753906 -38.203125 C 11.9375 -38.203125 10.527344 -37.984375 7.597656 -37.984375 C 4.828125 -37.984375 3.308594 -38.203125 2.0625 -38.203125 C 1.464844 -38.203125 0.976562 -38.148438 0.976562 -37.496094 Z M 0.976562 -37.496094 "/></g></g></g><g fill="#000000" fill-opacity="1"><g transform="translate(69.663121, 41.562948)"><g><path d="M 1.355469 -19.210938 C 1.355469 -7.867188 8.464844 0.597656 20.347656 0.597656 C 32.449219 0.597656 40.859375 -7.269531 40.859375 -19.480469 C 40.859375 -30.769531 32.289062 -38.691406 21.273438 -38.691406 C 10.203125 -38.691406 1.355469 -30.550781 1.355469 -19.210938 Z M 19.589844 -36.898438 C 30.441406 -36.898438 36.898438 -27.078125 36.898438 -17.417969 C 36.898438 -7.433594 30.605469 -1.03125 22.628906 -1.03125 C 11.882812 -1.03125 5.316406 -10.746094 5.316406 -20.785156 C 5.316406 -29.683594 10.796875 -36.898438 19.589844 -36.898438 Z M 19.589844 -36.898438 "/></g></g></g><g fill="#000000" fill-opacity="1"><g transform="translate(111.879079, 41.562948)"><g><path d="M 0.542969 -30.769531 C 0.542969 -30.550781 0.757812 -30.171875 1.085938 -30.171875 C 1.789062 -30.171875 1.84375 -30.875 2.117188 -31.746094 C 2.277344 -32.289062 2.550781 -33.101562 2.875 -33.753906 C 3.308594 -34.621094 3.90625 -35.21875 6.242188 -35.21875 L 15.195312 -35.21875 C 15.738281 -35.21875 15.84375 -34.785156 15.84375 -33.371094 L 15.84375 -4.503906 C 15.84375 -1.25 11.558594 -1.789062 11.558594 -0.488281 C 11.558594 0.0546875 11.722656 0.21875 12.210938 0.21875 C 12.699219 0.21875 13.566406 0 19.316406 0 C 21.273438 0 22.789062 0.21875 23.984375 0.21875 C 24.363281 0.21875 24.527344 0.0546875 24.527344 -0.378906 C 24.527344 -1.464844 23.0625 -1.195312 21.652344 -1.84375 C 20.730469 -2.277344 20.132812 -3.203125 20.132812 -4.773438 L 20.132812 -33.644531 C 20.132812 -35.109375 20.132812 -35.21875 21.542969 -35.21875 L 30.226562 -35.21875 C 31.636719 -35.21875 32.449219 -34.890625 32.9375 -34.511719 C 34.347656 -33.425781 33.210938 -31.09375 34.675781 -31.09375 C 35.164062 -31.09375 35.273438 -31.308594 35.273438 -31.90625 C 35.273438 -32.828125 35.109375 -35.054688 35 -36.683594 C 34.945312 -37.875 34.675781 -38.203125 33.425781 -38.203125 C 32.339844 -38.203125 26.371094 -37.984375 17.746094 -37.984375 C 14.164062 -37.984375 3.039062 -38.203125 2.386719 -38.203125 C 1.410156 -38.203125 1.300781 -37.875 1.140625 -36.25 Z M 0.542969 -30.769531 "/></g></g></g><g fill="#000000" fill-opacity="1"><g transform="translate(148.071938, 41.562948)"><g><path d="M 1.410156 -37.605469 C 1.410156 -36.410156 6.132812 -37.441406 6.132812 -33.535156 L 6.132812 -5.644531 C 6.132812 -0.433594 1.898438 -2.171875 1.898438 -0.597656 C 1.898438 -0.0546875 2.0625 0.21875 2.496094 0.21875 C 2.820312 0.21875 3.253906 0 7.109375 0 C 10.148438 0 13.890625 0.21875 14.707031 0.21875 C 15.03125 0.21875 15.574219 0.109375 15.574219 -0.21875 C 15.574219 -1.898438 10.417969 -0.757812 10.417969 -4.339844 L 10.417969 -18.125 C 10.417969 -18.613281 10.582031 -18.828125 11.015625 -18.828125 L 31.148438 -18.828125 C 31.472656 -18.828125 31.582031 -18.667969 31.582031 -18.339844 L 31.527344 -17.582031 L 31.527344 -4.394531 C 31.527344 -1.085938 27.730469 -1.789062 27.730469 -0.488281 C 27.730469 0.0546875 28.054688 0.21875 28.597656 0.21875 C 30.226562 0.21875 31.472656 0 34.945312 0 C 37.0625 0 38.746094 0.21875 40.101562 0.21875 C 40.589844 0.21875 40.753906 -0.324219 40.753906 -0.433594 C 40.753906 -1.789062 35.8125 -0.867188 35.8125 -4.722656 L 35.8125 -33.589844 C 35.8125 -37.226562 39.449219 -36.355469 39.449219 -37.332031 C 39.449219 -37.929688 38.90625 -38.203125 37.929688 -38.203125 C 36.84375 -38.203125 35.976562 -37.984375 34.078125 -37.984375 C 32.9375 -37.984375 30.117188 -38.203125 28.433594 -38.203125 C 27.785156 -38.203125 27.457031 -38.09375 27.457031 -37.605469 C 27.457031 -36.355469 31.527344 -37.28125 31.527344 -33.589844 L 31.527344 -22.03125 C 31.527344 -20.945312 31.257812 -20.835938 31.148438 -20.835938 L 11.125 -20.835938 C 10.472656 -20.835938 10.417969 -21.109375 10.417969 -21.542969 L 10.417969 -33.644531 C 10.417969 -37.550781 14.324219 -36.574219 14.324219 -37.660156 C 14.324219 -38.203125 13.621094 -38.203125 13.242188 -38.203125 C 11.722656 -38.203125 9.875 -37.984375 8.25 -37.984375 C 6.292969 -37.984375 4.179688 -38.203125 2.386719 -38.203125 C 2.117188 -38.203125 1.410156 -38.203125 1.410156 -37.605469 Z M 1.410156 -37.605469 "/></g></g></g><g fill="#000000" fill-opacity="1"><g transform="translate(190.287896, 41.562948)"><g><path d="M 2.277344 -37.605469 C 2.277344 -36.410156 6.675781 -37.441406 6.675781 -33.535156 L 6.675781 -5.699219 C 6.675781 -0.378906 2.441406 -2.171875 2.441406 -0.597656 C 2.441406 -0.0546875 2.660156 0.21875 3.582031 0.21875 C 4.394531 0.21875 5.480469 0 8.738281 0 C 11.179688 0 13.402344 0.21875 14.707031 0.21875 C 15.628906 0.21875 15.789062 0.0546875 15.789062 -0.324219 C 15.789062 -1.953125 10.960938 -0.707031 10.960938 -4.394531 L 10.960938 -33.644531 C 10.960938 -37.496094 14.867188 -36.410156 14.867188 -37.660156 C 14.867188 -38.148438 14.652344 -38.203125 13.78125 -38.203125 C 12.265625 -38.203125 10.417969 -37.984375 8.789062 -37.984375 C 6.835938 -37.984375 4.722656 -38.203125 2.929688 -38.203125 C 2.496094 -38.203125 2.277344 -38.203125 2.277344 -37.605469 Z M 2.277344 -37.605469 "/></g></g></g><g fill="#000000" fill-opacity="1"><g transform="translate(208.357193, 41.562948)"><g><path d="M 1.085938 -37.550781 C 1.085938 -36.953125 1.953125 -36.84375 2.929688 -36.628906 C 4.394531 -36.304688 5.644531 -35.652344 5.644531 -31.800781 L 5.644531 -6.078125 C 5.644531 -0.269531 1.683594 -1.683594 1.683594 -0.21875 C 1.683594 0 1.898438 0.269531 2.277344 0.269531 C 3.308594 0.269531 4.9375 0 8.03125 0 C 12.96875 0 13.292969 0.269531 13.890625 0.269531 C 14.324219 0.269531 15.03125 0.21875 15.03125 -0.488281 C 15.03125 -1.683594 9.929688 -0.433594 9.929688 -5.371094 L 9.929688 -17.308594 C 9.929688 -17.636719 10.039062 -18.179688 10.796875 -18.179688 L 19.046875 -18.179688 C 23.441406 -18.179688 21.652344 -13.402344 23.332031 -13.402344 C 23.929688 -13.402344 23.929688 -13.945312 23.929688 -14.21875 C 23.929688 -15.464844 23.820312 -17.039062 23.820312 -18.449219 L 23.929688 -23.714844 C 23.929688 -24.691406 23.550781 -24.90625 23.332031 -24.90625 C 21.976562 -24.90625 23.441406 -20.566406 18.015625 -20.566406 L 11.394531 -20.566406 C 10.148438 -20.566406 9.929688 -20.675781 9.929688 -21.652344 L 9.929688 -33.316406 C 9.929688 -35.921875 10.203125 -35.921875 14.324219 -35.921875 L 17.417969 -35.921875 C 20.835938 -35.921875 23.171875 -35.597656 24.203125 -34.457031 C 24.636719 -33.96875 24.636719 -33.316406 24.691406 -32.667969 C 24.796875 -31.527344 24.746094 -30.550781 25.558594 -30.550781 C 25.722656 -30.550781 26.644531 -30.496094 26.644531 -36.84375 C 26.644531 -37.984375 26.480469 -38.203125 25.992188 -38.203125 C 24.472656 -38.203125 19.480469 -37.984375 18.285156 -37.984375 C 16.605469 -37.984375 12.371094 -38.203125 3.582031 -38.203125 C 1.84375 -38.203125 1.085938 -38.148438 1.085938 -37.550781 Z M 1.085938 -37.550781 "/></g></g></g><g fill="#000000" fill-opacity="1"><g transform="translate(235.488271, 41.562948)"><g><path d="M 0.433594 -37.386719 C 0.433594 -36.792969 1.464844 -36.898438 2.820312 -36.304688 C 4.015625 -35.761719 4.285156 -35.109375 5.15625 -33.753906 L 13.566406 -20.292969 C 13.675781 -20.078125 14.8125 -18.722656 14.8125 -17.582031 L 14.8125 -4.285156 C 14.8125 -0.652344 10.636719 -1.898438 10.636719 -0.433594 C 10.636719 0.109375 10.90625 0.21875 11.394531 0.21875 C 12.046875 0.21875 13.835938 0 16.277344 0 C 18.394531 0 21.378906 0.21875 22.355469 0.21875 C 23.171875 0.21875 23.550781 0.109375 23.550781 -0.324219 C 23.550781 -1.953125 19.101562 -0.597656 19.101562 -5.15625 L 19.101562 -18.613281 C 19.101562 -19.265625 19.699219 -19.859375 20.402344 -20.945312 L 28.109375 -32.9375 C 29.195312 -34.675781 29.519531 -35.378906 30.550781 -36.195312 C 31.257812 -36.738281 32.339844 -36.898438 32.339844 -37.550781 C 32.339844 -37.660156 32.179688 -38.203125 31.636719 -38.203125 C 30.28125 -38.203125 28.488281 -37.984375 27.023438 -37.984375 C 25.777344 -37.984375 24.308594 -38.203125 23.117188 -38.203125 C 22.574219 -38.203125 21.921875 -38.148438 21.921875 -37.386719 C 21.921875 -36.085938 25.992188 -37.226562 25.992188 -34.566406 C 25.992188 -33.101562 25.179688 -32.125 24.796875 -31.472656 L 19.371094 -22.683594 C 18.992188 -22.140625 18.613281 -21.433594 18.234375 -21.433594 C 17.691406 -21.433594 17.203125 -22.355469 16.605469 -23.28125 L 12.210938 -30.28125 C 10.09375 -33.644531 9.605469 -34.1875 9.605469 -35.109375 C 9.605469 -36.683594 12.15625 -36.738281 12.15625 -37.660156 C 12.15625 -38.09375 11.667969 -38.203125 11.125 -38.203125 C 10.417969 -38.203125 9.277344 -37.984375 7.21875 -37.984375 C 3.746094 -37.984375 2.550781 -38.203125 1.195312 -38.203125 C 0.652344 -38.203125 0.433594 -37.605469 0.433594 -37.386719 Z M 0.433594 -37.386719 "/></g></g></g></g></g><g fill="#000000" fill-opacity="1"><g transform="translate(152.009759, 282.806701)"><g><path d="M 3.515625 -4.703125 L 3.515625 -1.765625 L 8.625 -1.765625 L 8.625 0 L 1.390625 0 L 1.390625 -10.703125 L 8.5 -10.703125 L 8.5 -8.9375 L 3.515625 -8.9375 L 3.515625 -6.4375 L 7.875 -6.4375 L 7.875 -4.703125 Z M 3.515625 -4.703125 "/></g></g><g transform="translate(161.216302, 282.806701)"><g><path d="M 4.75 0.15625 C 4.007812 0.15625 3.347656 0.0664062 2.765625 -0.109375 C 2.179688 -0.296875 1.695312 -0.539062 1.3125 -0.84375 C 0.925781 -1.144531 0.632812 -1.472656 0.4375 -1.828125 L 1.59375 -3.25 L 1.78125 -3.25 C 2.101562 -2.769531 2.507812 -2.382812 3 -2.09375 C 3.5 -1.8125 4.082031 -1.671875 4.75 -1.671875 C 5.3125 -1.671875 5.734375 -1.789062 6.015625 -2.03125 C 6.304688 -2.269531 6.453125 -2.601562 6.453125 -3.03125 C 6.453125 -3.28125 6.40625 -3.488281 6.3125 -3.65625 C 6.226562 -3.832031 6.078125 -3.976562 5.859375 -4.09375 C 5.640625 -4.21875 5.347656 -4.328125 4.984375 -4.421875 L 3.609375 -4.734375 C 2.648438 -4.953125 1.929688 -5.316406 1.453125 -5.828125 C 0.984375 -6.335938 0.75 -7 0.75 -7.8125 C 0.75 -8.414062 0.898438 -8.945312 1.203125 -9.40625 C 1.503906 -9.863281 1.945312 -10.21875 2.53125 -10.46875 C 3.113281 -10.726562 3.804688 -10.859375 4.609375 -10.859375 C 5.429688 -10.859375 6.132812 -10.75 6.71875 -10.53125 C 7.3125 -10.3125 7.8125 -9.976562 8.21875 -9.53125 L 7.171875 -8.09375 L 6.984375 -8.09375 C 6.679688 -8.414062 6.332031 -8.65625 5.9375 -8.8125 C 5.550781 -8.96875 5.109375 -9.046875 4.609375 -9.046875 C 4.023438 -9.046875 3.582031 -8.941406 3.28125 -8.734375 C 2.976562 -8.535156 2.828125 -8.253906 2.828125 -7.890625 C 2.828125 -7.554688 2.929688 -7.289062 3.140625 -7.09375 C 3.359375 -6.894531 3.726562 -6.738281 4.25 -6.625 L 5.65625 -6.328125 C 6.695312 -6.109375 7.453125 -5.734375 7.921875 -5.203125 C 8.390625 -4.679688 8.625 -4 8.625 -3.15625 C 8.625 -2.488281 8.476562 -1.90625 8.1875 -1.40625 C 7.894531 -0.914062 7.457031 -0.53125 6.875 -0.25 C 6.300781 0.0195312 5.59375 0.15625 4.75 0.15625 Z M 4.75 0.15625 "/></g></g></g><g fill="#000000" fill-opacity="1"><g transform="translate(170.291008, 282.806701)"><g><path d="M 8.578125 -10.703125 L 8.578125 -8.921875 L 5.5 -8.921875 L 5.5 0 L 3.390625 0 L 3.390625 -8.921875 L 0.296875 -8.921875 L 0.296875 -10.703125 Z M 8.578125 -10.703125 "/></g></g></g><g fill="#000000" fill-opacity="1"><g transform="translate(177.820304, 282.806701)"><g><path d="M 2.0625 0.0625 C 1.800781 0.0625 1.570312 0.0078125 1.375 -0.09375 C 1.175781 -0.195312 1.023438 -0.34375 0.921875 -0.53125 C 0.816406 -0.71875 0.765625 -0.925781 0.765625 -1.15625 C 0.765625 -1.394531 0.816406 -1.601562 0.921875 -1.78125 C 1.023438 -1.96875 1.175781 -2.113281 1.375 -2.21875 C 1.570312 -2.332031 1.800781 -2.390625 2.0625 -2.390625 C 2.332031 -2.390625 2.5625 -2.335938 2.75 -2.234375 C 2.945312 -2.128906 3.097656 -1.984375 3.203125 -1.796875 C 3.316406 -1.609375 3.375 -1.398438 3.375 -1.171875 C 3.375 -0.804688 3.253906 -0.507812 3.015625 -0.28125 C 2.773438 -0.0507812 2.457031 0.0625 2.0625 0.0625 Z M 2.0625 0.0625 "/></g></g><g transform="translate(181.958488, 282.806701)"><g/></g><g transform="translate(185.496085, 282.806701)"><g><path d="M 0.515625 -0.84375 C 0.515625 -1.4375 0.578125 -1.9375 0.703125 -2.34375 C 0.835938 -2.75 1.050781 -3.117188 1.34375 -3.453125 C 1.632812 -3.785156 2.050781 -4.144531 2.59375 -4.53125 L 4.015625 -5.5625 C 4.410156 -5.84375 4.71875 -6.082031 4.9375 -6.28125 C 5.15625 -6.488281 5.316406 -6.703125 5.421875 -6.921875 C 5.535156 -7.148438 5.59375 -7.410156 5.59375 -7.703125 C 5.59375 -8.140625 5.457031 -8.472656 5.1875 -8.703125 C 4.925781 -8.941406 4.53125 -9.0625 4 -9.0625 C 3.5 -9.0625 3.050781 -8.941406 2.65625 -8.703125 C 2.257812 -8.460938 1.929688 -8.132812 1.671875 -7.71875 L 1.53125 -7.671875 L 0.359375 -8.984375 C 0.742188 -9.546875 1.242188 -10 1.859375 -10.34375 C 2.472656 -10.6875 3.21875 -10.859375 4.09375 -10.859375 C 4.882812 -10.859375 5.550781 -10.726562 6.09375 -10.46875 C 6.632812 -10.207031 7.035156 -9.847656 7.296875 -9.390625 C 7.554688 -8.929688 7.6875 -8.40625 7.6875 -7.8125 C 7.6875 -7.300781 7.578125 -6.835938 7.359375 -6.421875 C 7.148438 -6.003906 6.859375 -5.613281 6.484375 -5.25 C 6.109375 -4.894531 5.628906 -4.515625 5.046875 -4.109375 L 3.78125 -3.21875 C 3.394531 -2.945312 3.125 -2.703125 2.96875 -2.484375 C 2.820312 -2.273438 2.75 -2.035156 2.75 -1.765625 L 7.59375 -1.765625 L 7.59375 0 L 0.515625 0 Z M 0.515625 -0.84375 "/></g></g><g transform="translate(193.853018, 282.806701)"><g><path d="M 5.234375 0.15625 C 4.359375 0.15625 3.597656 -0.0351562 2.953125 -0.421875 C 2.304688 -0.816406 1.800781 -1.421875 1.4375 -2.234375 C 1.082031 -3.054688 0.90625 -4.097656 0.90625 -5.359375 C 0.90625 -6.609375 1.082031 -7.644531 1.4375 -8.46875 C 1.800781 -9.289062 2.304688 -9.894531 2.953125 -10.28125 C 3.597656 -10.664062 4.359375 -10.859375 5.234375 -10.859375 C 6.109375 -10.859375 6.867188 -10.664062 7.515625 -10.28125 C 8.160156 -9.894531 8.660156 -9.289062 9.015625 -8.46875 C 9.378906 -7.644531 9.5625 -6.609375 9.5625 -5.359375 C 9.5625 -4.097656 9.378906 -3.054688 9.015625 -2.234375 C 8.660156 -1.421875 8.160156 -0.816406 7.515625 -0.421875 C 6.867188 -0.0351562 6.109375 0.15625 5.234375 0.15625 Z M 5.234375 -1.640625 C 5.710938 -1.640625 6.113281 -1.753906 6.4375 -1.984375 C 6.757812 -2.222656 7.003906 -2.613281 7.171875 -3.15625 C 7.347656 -3.707031 7.4375 -4.441406 7.4375 -5.359375 C 7.4375 -6.273438 7.347656 -7.003906 7.171875 -7.546875 C 7.003906 -8.097656 6.757812 -8.488281 6.4375 -8.71875 C 6.113281 -8.945312 5.710938 -9.0625 5.234375 -9.0625 C 4.753906 -9.0625 4.351562 -8.945312 4.03125 -8.71875 C 3.707031 -8.488281 3.457031 -8.097656 3.28125 -7.546875 C 3.113281 -7.003906 3.03125 -6.273438 3.03125 -5.359375 C 3.03125 -4.441406 3.113281 -3.707031 3.28125 -3.15625 C 3.457031 -2.613281 3.707031 -2.222656 4.03125 -1.984375 C 4.351562 -1.753906 4.753906 -1.640625 5.234375 -1.640625 Z M 5.234375 -1.640625 "/></g></g></g><g fill="#000000" fill-opacity="1"><g transform="translate(204.165518, 282.806701)"><g><path d="M 0.515625 -0.84375 C 0.515625 -1.4375 0.578125 -1.9375 0.703125 -2.34375 C 0.835938 -2.75 1.050781 -3.117188 1.34375 -3.453125 C 1.632812 -3.785156 2.050781 -4.144531 2.59375 -4.53125 L 4.015625 -5.5625 C 4.410156 -5.84375 4.71875 -6.082031 4.9375 -6.28125 C 5.15625 -6.488281 5.316406 -6.703125 5.421875 -6.921875 C 5.535156 -7.148438 5.59375 -7.410156 5.59375 -7.703125 C 5.59375 -8.140625 5.457031 -8.472656 5.1875 -8.703125 C 4.925781 -8.941406 4.53125 -9.0625 4 -9.0625 C 3.5 -9.0625 3.050781 -8.941406 2.65625 -8.703125 C 2.257812 -8.460938 1.929688 -8.132812 1.671875 -7.71875 L 1.53125 -7.671875 L 0.359375 -8.984375 C 0.742188 -9.546875 1.242188 -10 1.859375 -10.34375 C 2.472656 -10.6875 3.21875 -10.859375 4.09375 -10.859375 C 4.882812 -10.859375 5.550781 -10.726562 6.09375 -10.46875 C 6.632812 -10.207031 7.035156 -9.847656 7.296875 -9.390625 C 7.554688 -8.929688 7.6875 -8.40625 7.6875 -7.8125 C 7.6875 -7.300781 7.578125 -6.835938 7.359375 -6.421875 C 7.148438 -6.003906 6.859375 -5.613281 6.484375 -5.25 C 6.109375 -4.894531 5.628906 -4.515625 5.046875 -4.109375 L 3.78125 -3.21875 C 3.394531 -2.945312 3.125 -2.703125 2.96875 -2.484375 C 2.820312 -2.273438 2.75 -2.035156 2.75 -1.765625 L 7.59375 -1.765625 L 7.59375 0 L 0.515625 0 Z M 0.515625 -0.84375 "/></g></g><g transform="translate(212.522451, 282.806701)"><g><path d="M 5.234375 0.15625 C 4.359375 0.15625 3.597656 -0.0351562 2.953125 -0.421875 C 2.304688 -0.816406 1.800781 -1.421875 1.4375 -2.234375 C 1.082031 -3.054688 0.90625 -4.097656 0.90625 -5.359375 C 0.90625 -6.609375 1.082031 -7.644531 1.4375 -8.46875 C 1.800781 -9.289062 2.304688 -9.894531 2.953125 -10.28125 C 3.597656 -10.664062 4.359375 -10.859375 5.234375 -10.859375 C 6.109375 -10.859375 6.867188 -10.664062 7.515625 -10.28125 C 8.160156 -9.894531 8.660156 -9.289062 9.015625 -8.46875 C 9.378906 -7.644531 9.5625 -6.609375 9.5625 -5.359375 C 9.5625 -4.097656 9.378906 -3.054688 9.015625 -2.234375 C 8.660156 -1.421875 8.160156 -0.816406 7.515625 -0.421875 C 6.867188 -0.0351562 6.109375 0.15625 5.234375 0.15625 Z M 5.234375 -1.640625 C 5.710938 -1.640625 6.113281 -1.753906 6.4375 -1.984375 C 6.757812 -2.222656 7.003906 -2.613281 7.171875 -3.15625 C 7.347656 -3.707031 7.4375 -4.441406 7.4375 -5.359375 C 7.4375 -6.273438 7.347656 -7.003906 7.171875 -7.546875 C 7.003906 -8.097656 6.757812 -8.488281 6.4375 -8.71875 C 6.113281 -8.945312 5.710938 -9.0625 5.234375 -9.0625 C 4.753906 -9.0625 4.351562 -8.945312 4.03125 -8.71875 C 3.707031 -8.488281 3.457031 -8.097656 3.28125 -7.546875 C 3.113281 -7.003906 3.03125 -6.273438 3.03125 -5.359375 C 3.03125 -4.441406 3.113281 -3.707031 3.28125 -3.15625 C 3.457031 -2.613281 3.707031 -2.222656 4.03125 -1.984375 C 4.351562 -1.753906 4.753906 -1.640625 5.234375 -1.640625 Z M 5.234375 -1.640625 "/></g></g></g></svg>